<?xml version="1.0" encoding="UTF-8" standalone="no"?>
<!-- Created with Inkscape (http://www.inkscape.org/) -->

<svg
   xmlns:dc="http://purl.org/dc/elements/1.1/"
   xmlns:cc="http://creativecommons.org/ns#"
   xmlns:rdf="http://www.w3.org/1999/02/22-rdf-syntax-ns#"
   xmlns:svg="http://www.w3.org/2000/svg"
   xmlns="http://www.w3.org/2000/svg"
   xmlns:sodipodi="http://sodipodi.sourceforge.net/DTD/sodipodi-0.dtd"
   xmlns:inkscape="http://www.inkscape.org/namespaces/inkscape"
   width="2000"
   height="2000"
   id="svg2"
   version="1.1"
   inkscape:version="0.48.0 r9654"
   sodipodi:docname="Wiki_Loves_Monuments_logo_contest_-_Jorge_Barrios.svg"
   sodipodi:version="0.32"
   inkscape:output_extension="org.inkscape.output.svg.inkscape">
  <title
     id="title3934">Wiki Loves Monuments</title>
  <defs
     id="defs4" />
  <sodipodi:namedview
     id="base"
     pagecolor="#ffffff"
     bordercolor="#666666"
     borderopacity="1.0"
     inkscape:pageopacity="0.0"
     inkscape:pageshadow="2"
     inkscape:zoom="0.17642314"
     inkscape:cx="975.36821"
     inkscape:cy="1211.157"
     inkscape:document-units="px"
     inkscape:current-layer="layer5"
     showgrid="false"
     inkscape:showpageshadow="false"
     showguides="true"
     inkscape:snap-from-guide="false"
     inkscape:window-width="1024"
     inkscape:window-height="721"
     inkscape:window-x="-4"
     inkscape:window-y="-4"
     inkscape:window-maximized="1"
     inkscape:guide-bbox="true">
    <inkscape:grid
       type="xygrid"
       id="grid3807"
       empspacing="5"
       visible="true"
       enabled="true"
       snapvisiblegridlinesonly="true" />
  </sodipodi:namedview>
  <metadata
     id="metadata7">
    <rdf:RDF>
      <cc:Work
         rdf:about="">
        <dc:format>image/svg+xml</dc:format>
        <dc:type
           rdf:resource="http://purl.org/dc/dcmitype/StillImage" />
        <dc:title>Wiki Loves Monuments</dc:title>
        <dc:date>30-march-2011</dc:date>
        <dc:creator>
          <cc:Agent>
            <dc:title>Jorge Barrios Riquelme</dc:title>
          </cc:Agent>
        </dc:creator>
        <dc:rights>
          <cc:Agent>
            <dc:title>Public Domain</dc:title>
          </cc:Agent>
        </dc:rights>
        <dc:description>Wiki Loves Monuments logo contest 2011.</dc:description>
        <dc:language>English</dc:language>
        <dc:subject>
          <rdf:Bag>
            <rdf:li>Wiki Loves Monuments</rdf:li>
            <rdf:li>Logo</rdf:li>
            <rdf:li>Contest</rdf:li>
            <rdf:li>Design</rdf:li>
            <rdf:li>Wikimedia Foundation</rdf:li>
          </rdf:Bag>
        </dc:subject>
        <cc:license
           rdf:resource="http://creativecommons.org/licenses/by-sa/3.0/" />
      </cc:Work>
      <cc:License
         rdf:about="http://creativecommons.org/licenses/by-sa/3.0/">
        <cc:permits
           rdf:resource="http://creativecommons.org/ns#Reproduction" />
        <cc:permits
           rdf:resource="http://creativecommons.org/ns#Distribution" />
        <cc:requires
           rdf:resource="http://creativecommons.org/ns#Notice" />
        <cc:requires
           rdf:resource="http://creativecommons.org/ns#Attribution" />
        <cc:permits
           rdf:resource="http://creativecommons.org/ns#DerivativeWorks" />
        <cc:requires
           rdf:resource="http://creativecommons.org/ns#ShareAlike" />
      </cc:License>
    </rdf:RDF>
  </metadata>
  <g
     inkscape:label="Monument Icon"
     inkscape:groupmode="layer"
     id="layer1"
     transform="translate(0,947.63782)">
    <rect
       style="fill:#6496a0;fill-opacity:1;fill-rule:nonzero;stroke:none"
       id="rect3031"
       width="1050.9282"
       height="164.74008"
       x="475.05231"
       y="455.44708" />
    <path
       id="path3805"
       style="fill:#6496a0;fill-opacity:1;stroke:none"
       d="m 1263.2483,247.87695 -51.1261,-941.57481 -211.6058,-144.85765 0,1086.63592 z m -525.4638,8.1e-4 51.12623,-941.57481 211.60567,-144.85765 0,1086.63592 z"
       inkscape:connector-curvature="0" />
    <rect
       y="268.67151"
       x="606.31555"
       height="166.35011"
       width="788.40167"
       id="rect3810"
       style="fill:#434870;fill-opacity:1;fill-rule:nonzero;stroke:none" />
  </g>
  <g
     inkscape:groupmode="layer"
     id="layer2"
     inkscape:label="Heart 1"
     style="display:inline" />
  <g
     inkscape:groupmode="layer"
     id="layer3"
     inkscape:label="Heart 3" />
  <g
     inkscape:groupmode="layer"
     id="layer4"
     inkscape:label="Heart 2"
     style="display:inline" />
  <g
     inkscape:groupmode="layer"
     id="layer5"
     inkscape:label="Text"
     style="display:inline">
    <g
       id="g3024"
       transform="matrix(1.1654598,0,0,1.1654598,-164.88088,-252.54251)">
      <g
         id="g2432">
        <path
           id="path3956"
           style="font-size:71.92866516px;font-style:normal;font-variant:normal;font-weight:normal;font-stretch:normal;text-align:center;line-height:100%;letter-spacing:0px;word-spacing:0px;writing-mode:lr-tb;text-anchor:middle;fill:#0c3941;fill-opacity:1;font-family:Sans Poster Bold JL;-inkscape-font-specification:Sans Poster Bold JL"
           d="m 602.4504,1639.6866 9.5028,-36.4322 21.12048,0 8.9751,35.9044 7.91967,-36.4321 36.95984,0 -25.34215,105.0706 -30.09961,0 -10.55823,-31.1509 -8.44739,31.1509 -30.09558,0 -26.92933,-105.0706 36.95984,0 10.03456,36.9599 z"
           inkscape:connector-curvature="0" />
        <path
           id="path3958"
           style="font-size:71.92866516px;font-style:normal;font-variant:normal;font-weight:normal;font-stretch:normal;text-align:center;line-height:100%;letter-spacing:0px;word-spacing:0px;writing-mode:lr-tb;text-anchor:middle;fill:#0c3941;fill-opacity:1;font-family:Sans Poster Bold JL;-inkscape-font-specification:Sans Poster Bold JL"
           d="m 735.816,1602.1991 -37.48754,0 0,105.5982 37.48754,0 0,-105.5982 z"
           inkscape:connector-curvature="0" />
        <path
           id="path3960"
           style="font-size:71.92866516px;font-style:normal;font-variant:normal;font-weight:normal;font-stretch:normal;text-align:center;line-height:100%;letter-spacing:0px;word-spacing:0px;writing-mode:lr-tb;text-anchor:middle;fill:#0c3941;fill-opacity:1;font-family:Sans Poster Bold JL;-inkscape-font-specification:Sans Poster Bold JL"
           d="m 787.6484,1674.0038 20.59277,33.7935 40.1261,0 -31.151,-54.3823 31.151,-51.2159 -38.54297,0 -22.70362,35.9003 0,-35.9003 -38.01525,0 0,105.5982 38.54297,0 0,-33.7935 z"
           inkscape:connector-curvature="0" />
        <path
           id="path3962"
           style="font-size:71.92866516px;font-style:normal;font-variant:normal;font-weight:normal;font-stretch:normal;text-align:center;line-height:100%;letter-spacing:0px;word-spacing:0px;writing-mode:lr-tb;text-anchor:middle;fill:#0c3941;fill-opacity:1;font-family:Sans Poster Bold JL;-inkscape-font-specification:Sans Poster Bold JL"
           d="m 896.94881,1602.1991 -37.48754,0 0,105.5982 37.48754,0 0,-105.5982 z"
           inkscape:connector-curvature="0" />
        <path
           id="path3964"
           style="font-size:71.92866516px;font-style:normal;font-variant:normal;font-weight:normal;font-stretch:normal;text-align:center;line-height:100%;letter-spacing:0px;word-spacing:0px;writing-mode:lr-tb;text-anchor:middle;fill:#0c3941;fill-opacity:1;font-family:Sans Poster Bold JL;-inkscape-font-specification:Sans Poster Bold JL"
           d="m 1045.3965,1707.7973 0,-33.7935 -45.93902,0 0,-71.8047 -36.43213,0 0,105.5982 82.37115,0 z"
           inkscape:connector-curvature="0" />
        <path
           id="path3966"
           style="font-size:71.92866516px;font-style:normal;font-variant:normal;font-weight:normal;font-stretch:normal;text-align:center;line-height:100%;letter-spacing:0px;word-spacing:0px;writing-mode:lr-tb;text-anchor:middle;fill:#0c3941;fill-opacity:1;font-family:Sans Poster Bold JL;-inkscape-font-specification:Sans Poster Bold JL"
           d="m 1044.8929,1657.9025 c 4.9279,30.9752 23.9362,48.223 57.0249,51.7439 35.5511,-4.9281 54.5595,-23.5844 57.025,-55.9695 -4.2245,-34.8475 -23.9364,-53.151 -59.1358,-54.9101 -37.313,3.5181 -55.6177,23.2301 -54.9141,59.1357 l 0,0 z m 57.0249,-21.1204 c 11.6149,2.111 17.2466,7.7425 16.8948,16.8948 1.058,8.8006 -4.7495,14.608 -17.4226,17.4225 -10.7367,-2.9032 -16.1924,-8.7105 -16.3669,-17.4225 -0.178,-9.1523 5.4542,-14.7838 16.8947,-16.8948 l 0,0 z"
           inkscape:connector-curvature="0" />
        <path
           id="path3968"
           style="font-size:71.92866516px;font-style:normal;font-variant:normal;font-weight:normal;font-stretch:normal;text-align:center;line-height:100%;letter-spacing:0px;word-spacing:0px;writing-mode:lr-tb;text-anchor:middle;fill:#0c3941;fill-opacity:1;font-family:Sans Poster Bold JL;-inkscape-font-specification:Sans Poster Bold JL"
           d="m 1166.9429,1602.1991 38.0192,0 17.4226,60.7187 16.8948,-60.7187 35.9043,0 -31.6785,105.5982 -42.241,0 -34.3214,-105.5982 z"
           inkscape:connector-curvature="0" />
        <path
           id="path3970"
           style="font-size:71.92866516px;font-style:normal;font-variant:normal;font-weight:normal;font-stretch:normal;text-align:center;line-height:100%;letter-spacing:0px;word-spacing:0px;writing-mode:lr-tb;text-anchor:middle;fill:#0c3941;fill-opacity:1;font-family:Sans Poster Bold JL;-inkscape-font-specification:Sans Poster Bold JL"
           d="m 1323.6285,1669.2544 43.2964,0 0,-27.457 -43.2964,0 0,-6.3366 49.1052,0 0,-34.3214 -89.7629,0 0,106.6579 88.7075,0 0,-32.2063 -48.0498,0 0,-6.3366 z"
           inkscape:connector-curvature="0" />
        <path
           id="path3972"
           style="font-size:71.92866516px;font-style:normal;font-variant:normal;font-weight:normal;font-stretch:normal;text-align:center;line-height:100%;letter-spacing:0px;word-spacing:0px;writing-mode:lr-tb;text-anchor:middle;fill:#0c3941;fill-opacity:1;font-family:Sans Poster Bold JL;-inkscape-font-specification:Sans Poster Bold JL"
           d="m 1456.9417,1605.0993 c -12.4073,-2.8144 -23.187,-4.2216 -32.3393,-4.2216 -26.7535,0 -39.3808,11.9682 -37.8824,35.9044 0.7896,12.1441 7.7412,21.032 20.8546,26.6635 9.0638,3.8725 13.5956,7.392 13.5956,10.5582 0,1.7617 -1.0997,3.126 -3.2991,4.0927 -1.7617,0.7922 -3.6538,1.1885 -5.6759,1.1885 -5.9836,0 -14.8282,-2.5513 -26.5347,-7.6539 l 0.2659,35.5056 c 10.2079,1.6731 19.4031,2.5097 27.586,2.5097 28.1606,0 43.8697,-9.5484 47.1273,-28.6454 0.7036,-13.4627 -4.5776,-23.2299 -15.8434,-29.302 -9.7673,-5.1939 -14.651,-9.9902 -14.651,-14.3893 0,-3.4319 2.2007,-5.1479 6.6025,-5.1481 4.3989,2e-4 11.13,1.8478 20.1939,5.543 l 0,-32.6053 z"
           inkscape:connector-curvature="0" />
      </g>
      <g
         id="g2452">
        <path
           id="path3937"
           style="font-size:132px;font-style:normal;font-variant:normal;font-weight:normal;font-stretch:normal;text-align:center;line-height:125%;letter-spacing:0px;word-spacing:0px;text-anchor:middle;fill:#0c3941;fill-opacity:1;font-family:Sans Poster Bold JL;-inkscape-font-specification:Sans Poster Bold JL"
           d="m 538.42498,1799.4652 13.72852,34.3213 27.45704,0 13.06786,-34.3213 0,34.3213 35.37672,0 0,-105.5984 -39.33655,0 -23.4972,43.8241 -23.89197,-43.8241 -38.80884,0 0,105.5984 35.90442,0 0,-34.3213 z"
           inkscape:connector-curvature="0" />
        <path
           id="path3939"
           style="font-size:132px;font-style:normal;font-variant:normal;font-weight:normal;font-stretch:normal;text-align:center;line-height:125%;letter-spacing:0px;word-spacing:0px;text-anchor:middle;fill:#0c3941;fill-opacity:1;font-family:Sans Poster Bold JL;-inkscape-font-specification:Sans Poster Bold JL"
           d="m 633.63031,1783.8917 c 4.92797,30.9751 23.93625,48.223 57.0249,51.7438 35.55118,-4.928 54.55946,-23.5845 57.02491,-55.9695 -4.22447,-34.8476 -23.93638,-53.1509 -59.13575,-54.91 -37.31301,3.5181 -55.61768,23.23 -54.91406,59.1357 l 0,0 z m 57.0249,-21.1205 c 11.61492,2.1109 17.24651,7.7425 16.89477,16.8948 1.05804,8.8006 -4.74945,14.6081 -17.42248,17.4225 -10.73686,-2.9031 -16.19255,-8.7106 -16.36706,-17.4225 -0.17729,-9.1523 5.4543,-14.7839 16.89477,-16.8948 z"
           inkscape:connector-curvature="0" />
        <path
           id="path3941"
           style="font-size:132px;font-style:normal;font-variant:normal;font-weight:normal;font-stretch:normal;text-align:center;line-height:125%;letter-spacing:0px;word-spacing:0px;text-anchor:middle;fill:#0c3941;fill-opacity:1;font-family:Sans Poster Bold JL;-inkscape-font-specification:Sans Poster Bold JL"
           d="m 791.05706,1791.5455 25.34619,42.241 40.12611,0 0,-105.5984 -32.20642,0 0,43.8241 -26.92933,-43.8241 -41.18555,0 0,105.5984 34.849,0 0,-42.241 z"
           inkscape:connector-curvature="0" />
        <path
           id="path3943"
           style="font-size:132px;font-style:normal;font-variant:normal;font-weight:normal;font-stretch:normal;text-align:center;line-height:125%;letter-spacing:0px;word-spacing:0px;text-anchor:middle;fill:#0c3941;fill-opacity:1;font-family:Sans Poster Bold JL;-inkscape-font-specification:Sans Poster Bold JL"
           d="m 963.42486,1727.6604 -34.84899,0 0,67.0554 c -1.40998,6.2466 -5.1496,9.3256 -11.21888,9.2369 -5.63432,-0.086 -9.11076,-3.1649 -10.42931,-9.2369 l 0,-67.0554 -36.43214,0 0,67.5831 c 3.16893,28.072 17.95286,42.6801 44.35181,43.8241 15.92791,0.7036 28.00614,-2.8829 36.23474,-10.7596 8.22843,-7.8767 12.34267,-19.7791 12.34277,-35.7071 l 0,-64.9405 z"
           inkscape:connector-curvature="0" />
        <path
           id="path3945"
           style="font-size:132px;font-style:normal;font-variant:normal;font-weight:normal;font-stretch:normal;text-align:center;line-height:125%;letter-spacing:0px;word-spacing:0px;text-anchor:middle;fill:#0c3941;fill-opacity:1;font-family:Sans Poster Bold JL;-inkscape-font-specification:Sans Poster Bold JL"
           d="m 1009.964,1799.4652 13.7286,34.3213 27.457,0 13.0679,-34.3213 0,34.3213 35.3767,0 0,-105.5984 -39.3366,0 -23.4972,43.8241 -23.8919,-43.8241 -38.80887,0 0,105.5984 35.90437,0 0,-34.3213 z"
           inkscape:connector-curvature="0" />
        <path
           id="path3947"
           style="font-size:132px;font-style:normal;font-variant:normal;font-weight:normal;font-stretch:normal;text-align:center;line-height:125%;letter-spacing:0px;word-spacing:0px;text-anchor:middle;fill:#0c3941;fill-opacity:1;font-family:Sans Poster Bold JL;-inkscape-font-specification:Sans Poster Bold JL"
           d="m 1150.8425,1795.2435 43.2963,0 0,-27.457 -43.2963,0 0,-6.3366 49.1052,0 0,-34.3213 -89.7631,0 0,106.6579 88.7077,0 0,-32.2064 -48.0498,0 0,-6.3366 z"
           inkscape:connector-curvature="0" />
        <path
           id="path3949"
           style="font-size:132px;font-style:normal;font-variant:normal;font-weight:normal;font-stretch:normal;text-align:center;line-height:125%;letter-spacing:0px;word-spacing:0px;text-anchor:middle;fill:#0c3941;fill-opacity:1;font-family:Sans Poster Bold JL;-inkscape-font-specification:Sans Poster Bold JL"
           d="m 1244.2914,1791.5455 25.3462,42.241 40.1261,0 0,-105.5984 -32.2064,0 0,43.8241 -26.9293,-43.8241 -41.1856,0 0,105.5984 34.849,0 0,-42.241 z"
           inkscape:connector-curvature="0" />
        <path
           id="path3951"
           style="font-size:132px;font-style:normal;font-variant:normal;font-weight:normal;font-stretch:normal;text-align:center;line-height:125%;letter-spacing:0px;word-spacing:0px;text-anchor:middle;fill:#0c3941;fill-opacity:1;font-family:Sans Poster Bold JL;-inkscape-font-specification:Sans Poster Bold JL"
           d="m 1410.8504,1727.1286 0,34.849 -28.6454,0 0,71.8089 -36.8269,0 0,-71.8089 -27.9847,0 0,-34.849 93.457,0 z"
           inkscape:connector-curvature="0" />
        <path
           id="path3953"
           style="font-size:132px;font-style:normal;font-variant:normal;font-weight:normal;font-stretch:normal;text-align:center;line-height:125%;letter-spacing:0px;word-spacing:0px;text-anchor:middle;fill:#0c3941;fill-opacity:1;font-family:Sans Poster Bold JL;-inkscape-font-specification:Sans Poster Bold JL"
           d="m 1492.726,1731.0885 c -12.4073,-2.8144 -23.1871,-4.2216 -32.3394,-4.2217 -26.7534,10e-5 -39.3808,11.9682 -37.8823,35.9044 0.7896,12.1441 7.7411,21.0319 20.8546,26.6635 9.0637,3.8726 13.5956,7.392 13.5956,10.5582 0,1.7617 -1.0998,3.126 -3.2992,4.0928 -1.7617,0.7922 -3.6537,1.1884 -5.6759,1.1883 -5.9834,1e-4 -14.8282,-2.5512 -26.5345,-7.6538 l 0.2658,35.5056 c 10.2078,1.6731 19.4031,2.5097 27.586,2.5097 28.1606,0 43.8696,-9.5485 47.1273,-28.6454 0.7035,-13.4626 -4.5776,-23.2299 -15.8434,-29.302 -9.7674,-5.1938 -14.651,-9.9902 -14.651,-14.3892 0,-3.432 2.2008,-5.1481 6.6024,-5.1482 4.3989,10e-5 11.1302,1.8478 20.194,5.543 l 0,-32.6052 z"
           inkscape:connector-curvature="0" />
      </g>
    </g>
  </g>
</svg>
